<svg width="756" height="324" viewBox="0 0 756 324" fill="none" xmlns="http://www.w3.org/2000/svg">
<rect x="0.5" y="0.5" width="755" height="322.65" fill="" stroke="#000000"/>
<path d="M368.188 169.474H394.005V160.864H391.169C391.184 161.652 391.034 162.434 390.728 163.16C390.423 163.887 389.968 164.541 389.395 165.081C388.821 165.621 388.141 166.036 387.398 166.297C386.654 166.559 385.864 166.662 385.079 166.6H381.103V153.71H385.433V150.862H368.188V153.71H372.519V166.575H368.176L368.188 169.474Z" fill="#010101"/>
<path d="M406.415 169.487H416.468L424.989 153.723H429.256V150.862H416.405V153.723H420.114L413.91 165.207L407.618 153.723H412.125V150.862H393.475V153.723H397.742L406.415 169.487Z" fill="#010101"/>
<path d="M316.77 150.862H298.119V153.723H302.386L311.059 169.487H321.112L329.634 153.723H333.913V150.862H321.049V153.723H324.772L318.555 165.207L312.262 153.723H316.782L316.77 150.862Z" fill="#010101"/>
<path d="M336.408 160.244C336.408 165.727 340.827 170.082 349.69 170.082C358.553 170.082 362.909 165.727 362.909 160.244C362.909 154.762 358.275 150.52 349.64 150.52C341.004 150.52 336.408 154.787 336.408 160.244ZM354.248 160.244C354.185 163.625 352.792 167.158 349.538 167.094C346.284 167.031 345.005 163.549 345.056 160.08C345.107 156.61 346.841 153.369 349.791 153.42C352.742 153.47 354.312 156.648 354.248 160.244Z" fill="#010101"/>
<path d="M431.736 160.244C431.736 165.727 436.143 170.082 445.006 170.082C453.869 170.082 458.237 165.727 458.237 160.244C458.237 154.762 453.59 150.52 444.955 150.52C436.32 150.52 431.736 154.787 431.736 160.244ZM445.12 153.458C448.07 153.458 449.627 156.699 449.564 160.282C449.564 163.663 448.108 167.196 444.866 167.132C441.625 167.069 440.321 163.587 440.384 160.118C440.447 156.648 442.157 153.356 445.12 153.407V153.458Z" fill="#010101"/>
<path d="M466.075 100.988L455.275 111.788C467.516 130.73 472.313 153.531 468.743 175.799C465.173 198.067 453.488 218.226 435.939 232.391C418.39 246.556 396.219 253.725 373.699 252.517C351.179 251.308 329.903 241.807 313.971 225.845C298.039 209.883 288.578 188.59 287.412 166.067C286.245 143.545 293.456 121.388 307.654 103.866C321.852 86.3434 342.033 74.6958 364.307 71.1673C386.582 67.6389 409.375 72.4793 428.293 84.7559L439.093 73.9556C417.25 58.8195 390.536 52.4003 364.201 55.9594C337.865 59.5185 313.813 72.7986 296.772 93.1898C279.73 113.581 270.931 139.609 272.104 166.157C273.277 192.706 284.337 217.857 303.11 236.665C321.884 255.474 347.013 266.581 373.56 267.804C400.107 269.027 426.151 260.277 446.574 243.273C466.997 226.27 480.322 202.243 483.931 175.914C487.539 149.586 481.17 122.859 466.075 100.988Z" fill="#010101"/>
<path d="M432.053 59.2432V62.2186C438.482 65.7094 444.558 69.814 450.197 74.475L435.003 89.6689C440.725 94.1523 445.886 99.3089 450.374 105.027L465.568 89.8335C470.216 95.4675 474.332 101.52 477.862 107.914H480.774V59.2432H432.053Z" fill="#010101"/>
</svg>
