<?xml version="1.0" standalone="no"?>
<!DOCTYPE svg PUBLIC "-//W3C//DTD SVG 20010904//EN"
 "http://www.w3.org/TR/2001/REC-SVG-20010904/DTD/svg10.dtd">
<svg version="1.0" xmlns="http://www.w3.org/2000/svg"
 width="300.000000pt" height="135.000000pt" viewBox="0 0 300.000000 135.000000"
 preserveAspectRatio="xMidYMid meet">
<metadata>
Created by potrace 1.10, written by Peter Selinger 2001-2011
</metadata>
<g transform="translate(0.000000,135.000000) scale(0.100000,-0.100000)"
fill="#000000" stroke="none">
<path d="M863 781 c-50 -13 -80 -37 -93 -75 -23 -70 32 -127 129 -134 102 -7
171 46 157 123 -13 65 -106 107 -193 86z m87 -50 c25 -48 0 -131 -40 -131 -25
0 -50 37 -50 75 0 62 65 103 90 56z m-110 -15 c-8 -22 -6 -62 5 -93 6 -17 -5
-16 -29 2 -24 18 -29 64 -10 93 21 31 47 30 34 -2z m180 -7 c16 -28 12 -57
-10 -79 -29 -29 -41 -25 -28 11 6 17 8 45 5 64 -4 27 -3 33 9 28 8 -3 19 -14
24 -24z"/>
<path d="M2725 785 c-5 -2 -22 -6 -36 -9 -42 -9 -79 -53 -79 -95 0 -69 55
-111 145 -111 121 0 186 90 120 168 -28 34 -112 60 -150 47z m-34 -49 c-13
-16 -17 -71 -7 -103 9 -27 0 -29 -26 -6 -28 25 -24 77 8 102 31 24 42 27 25 7z
m96 2 c30 -38 19 -122 -17 -133 -58 -18 -92 77 -48 133 6 6 21 12 33 12 12 0
27 -6 32 -12z m65 -15 c10 -9 18 -28 18 -42 0 -26 -24 -71 -38 -71 -4 0 -7 29
-7 65 0 36 2 65 4 65 3 0 13 -7 23 -17z"/>
<path d="M100 765 c0 -9 9 -15 23 -15 18 0 32 -18 71 -87 l48 -88 56 1 56 1
46 84 c39 69 52 85 74 87 14 2 26 10 26 18 0 11 -17 14 -75 14 -60 0 -75 -3
-75 -15 0 -8 9 -15 20 -15 26 0 26 -1 -12 -70 l-32 -58 -33 59 c-18 33 -33 62
-33 64 0 3 11 5 25 5 16 0 25 6 25 15 0 12 -18 15 -105 15 -87 0 -105 -3 -105
-15z m156 -70 c15 -31 30 -58 35 -61 19 -11 9 -34 -13 -31 -15 3 -34 25 -60
71 -21 37 -38 70 -38 72 0 2 11 4 25 4 21 0 30 -10 51 -55z"/>
<path d="M1370 765 c0 -10 10 -15 28 -15 l27 0 -3 -70 c-4 -67 -5 -70 -29 -70
-17 0 -23 -5 -21 -16 3 -13 24 -16 146 -17 l142 -2 0 48 c0 35 -4 47 -15 47
-8 0 -15 -6 -15 -13 0 -24 -36 -47 -73 -47 l-37 0 0 70 c0 68 1 70 25 70 16 0
25 6 25 15 0 12 -18 15 -100 15 -82 0 -100 -3 -100 -15z m116 -87 c-2 -59 -6
-74 -19 -76 -15 -3 -17 7 -17 72 0 68 2 76 19 76 17 0 18 -8 17 -72z"/>
<path d="M1940 765 c0 -9 9 -15 24 -15 20 0 33 -15 73 -87 l48 -86 56 -2 55
-1 48 88 c39 74 51 88 72 88 15 0 24 6 24 15 0 12 -15 15 -73 15 -59 0 -74 -3
-74 -15 0 -9 9 -15 23 -15 21 0 21 -2 -13 -66 l-35 -65 -25 48 c-14 26 -29 52
-34 58 -16 16 -10 25 16 25 16 0 25 6 25 15 0 12 -18 15 -105 15 -87 0 -105
-3 -105 -15z m171 -89 c31 -62 34 -72 19 -71 -27 2 -44 20 -74 76 -32 62 -32
69 -3 68 17 0 30 -16 58 -73z"/>
</g>
</svg>
