<svg width="479" height="38" viewBox="0 0 479 38" fill="none" xmlns="http://www.w3.org/2000/svg">
<path fill-rule="evenodd" clip-rule="evenodd" d="M113.759 18.867C113.759 8.36952 122.475 0 138.888 0C155.307 0 164.115 8.36952 164.115 18.867C164.115 29.5134 155.809 38 138.983 38C122.153 38 113.759 29.5134 113.759 18.867ZM130.19 18.6453C130.079 25.3745 132.713 32.1449 138.708 32.2525C144.882 32.3697 147.535 25.5297 147.646 18.9589C147.769 11.9954 144.8 5.8077 139.185 5.7032C133.57 5.60503 130.31 11.6787 130.19 18.6453ZM8.11297 6.31434L24.6013 36.9265L43.6854 36.9423L59.8924 6.31434H68.0148V0.766347H43.5811V6.31434H50.638L38.8385 28.6077L26.8809 6.31434H35.4586L35.4523 0.766347H0.00631996L0 6.31434H8.11297ZM218.162 6.29854V0.766347L250.847 0.772677V6.30487H242.706V31.2899H250.253C257.247 31.2899 261.831 26.5683 261.831 20.1622H267.225V36.8948L218.162 36.9012V31.2962H226.401L226.388 6.29854H218.162ZM322.979 6.31434L339.461 36.9265L358.551 36.9423L374.758 6.31434H382.881V0.766347H358.447V6.31434H365.504L353.704 28.6077L341.747 6.31434H350.318V0.766347H314.872L314.866 6.31434H322.979ZM428.643 18.867C428.643 8.36952 437.36 0 453.773 0C470.191 0 479 8.36952 479 18.867C479 29.5134 470.694 38 453.867 38C437.038 38 428.643 29.5134 428.643 18.867ZM445.075 18.6453C444.964 25.3745 447.598 32.1449 453.592 32.2525C459.761 32.3697 462.417 25.5297 462.527 18.9589C462.648 11.9954 459.685 5.8077 454.07 5.7032C448.455 5.60503 445.195 11.6787 445.075 18.6453Z" fill="white"/>
</svg>
